<?xml version="1.0" encoding="UTF-8" standalone="no"?>
<svg width="291px" height="46px" viewBox="0 0 291 46" version="1.1" xmlns="http://www.w3.org/2000/svg" xmlns:xlink="http://www.w3.org/1999/xlink">
    <!-- Generator: Sketch 41 (35326) - http://www.bohemiancoding.com/sketch -->
    <title>Cousteau Copy 4</title>
    <desc>Created with Sketch.</desc>
    <defs>
        <path d="M24.41,45.792 C35.96,45.792 41.834,38.796 44.408,32.922 L32.924,27.642 C31.802,31.074 28.37,34.044 24.41,34.044 C18.008,34.044 13.718,29.16 13.718,23.022 C13.718,16.884 18.008,12 24.41,12 C28.37,12 31.802,14.97 32.924,18.402 L44.408,13.056 C41.768,6.984 35.96,0.252 24.41,0.252 C10.616,0.252 0.188,9.426 0.188,23.022 C0.188,36.552 10.616,45.792 24.41,45.792 Z M64.01,45.792 C75.362,45.792 81.962,37.938 81.962,29.028 C81.962,20.118 75.362,12.33 64.01,12.33 C52.724,12.33 46.124,20.118 46.124,29.028 C46.124,37.938 52.724,45.792 64.01,45.792 Z M64.01,35.298 C60.38,35.298 58.334,32.592 58.334,29.028 C58.334,25.53 60.38,22.824 64.01,22.824 C67.706,22.824 69.752,25.53 69.752,29.028 C69.752,32.592 67.706,35.298 64.01,35.298 Z M119.78,45 L119.78,13.122 L107.9,13.122 L107.9,32.79 C106.91,33.912 105.524,35.298 102.884,35.298 C99.98,35.298 98.264,34.044 98.264,30.81 L98.264,13.122 L86.384,13.122 L86.384,35.892 C86.384,41.37 89.552,45.792 96.944,45.792 C102.554,45.792 106.052,43.482 107.9,41.436 L107.9,45 L119.78,45 Z M139.316,45.792 C148.754,45.792 154.43,41.172 154.43,34.836 C154.43,21.57 136.346,24.87 136.346,22.23 C136.346,21.504 137.6,20.844 139.316,20.844 C143.012,20.844 146.708,22.494 148.688,24.144 L153.044,16.422 C149.348,13.98 144.596,12.33 139.25,12.33 C130.01,12.33 124.994,17.478 124.994,23.22 C124.994,36.42 143.078,32.526 143.078,35.562 C143.078,36.354 142.352,36.948 139.91,36.948 C136.346,36.948 130.934,34.902 128.426,32.922 L123.674,40.908 C127.106,43.746 133.442,45.792 139.316,45.792 Z M172.118,45.792 C176.144,45.792 178.916,44.802 180.17,43.68 L178.058,34.704 C177.794,34.968 176.738,35.298 175.682,35.298 C174.098,35.298 173.042,33.978 173.042,32.328 L173.042,23.418 L179.51,23.418 L179.51,13.122 L173.042,13.122 L173.042,4.41 L161.162,4.41 L161.162,13.122 L155.882,13.122 L155.882,23.418 L161.162,23.418 L161.162,35.76 C161.162,42.426 165.056,45.792 172.118,45.792 Z M199.508,45.792 C204.26,45.792 209.936,44.538 213.104,41.832 L208.22,34.506 C206.636,35.892 202.676,36.75 200.894,36.75 C197,36.75 194.69,34.77 194.03,32.724 L215.678,32.724 L215.678,30.282 C215.678,19.062 208.484,12.33 199.112,12.33 C188.816,12.33 181.754,19.788 181.754,29.028 C181.754,39.522 189.542,45.792 199.508,45.792 Z M204.392,25.2 L193.898,25.2 C194.294,23.748 195.482,21.372 199.112,21.372 C202.94,21.372 204.062,23.814 204.392,25.2 Z M250.064,45 L250.064,25.728 C250.064,15.102 242.342,12.33 234.422,12.33 C229.604,12.33 223.664,13.716 219.374,17.148 L223.4,24.474 C225.908,22.56 229.274,21.372 232.244,21.372 C236.138,21.372 238.184,23.088 238.184,25.332 L238.184,28.632 C236.468,26.454 232.706,25.134 228.548,25.134 C223.796,25.134 217.592,27.378 217.592,35.298 C217.592,42.558 223.796,45.792 228.548,45.792 C232.508,45.792 236.402,44.208 238.184,41.964 L238.184,45 L250.064,45 Z M233.498,38.07 C231.518,38.07 229.34,37.476 229.34,35.496 C229.34,33.516 231.518,32.856 233.498,32.856 C235.346,32.856 237.392,33.45 238.184,34.572 L238.184,36.354 C237.392,37.476 235.346,38.07 233.498,38.07 Z M290.06,45 L290.06,13.122 L278.18,13.122 L278.18,32.79 C277.19,33.912 275.804,35.298 273.164,35.298 C270.26,35.298 268.544,34.044 268.544,30.81 L268.544,13.122 L256.664,13.122 L256.664,35.892 C256.664,41.37 259.832,45.792 267.224,45.792 C272.834,45.792 276.332,43.482 278.18,41.436 L278.18,45 L290.06,45 Z" id="path-1"></path>
        <mask id="mask-2" maskContentUnits="userSpaceOnUse" maskUnits="objectBoundingBox" x="0" y="0" width="289.872" height="45.54" fill="white">
            <use xlink:href="#path-1"></use>
        </mask>
    </defs>
    <g id="Page-1" stroke="none" stroke-width="1" fill="none" fill-rule="evenodd">
        <mask id="mask-3" fill="white">
            <use xlink:href="#path-1"></use>
        </mask>
        <g id="Cousteau-Copy-4" stroke="#000000" mask="url(#mask-2)" stroke-width="2" fill-opacity="1" fill="black">
            <use stroke="none" xlink:href="#path-1"></use>
        </g>
    </g>
</svg>